<svg width="93" height="50" viewBox="0 0 93 50" fill="none" xmlns="http://www.w3.org/2000/svg">
<path d="M44.9763 40.5892L46.1553 40.9091L47.3141 40.5947C46.9984 40.5979 46.6816 40.5995 46.3636 40.5995C45.8988 40.5995 45.4363 40.596 44.9763 40.5892Z" fill="url(#paint0_linear_99_169)"/>
<path fill-rule="evenodd" clip-rule="evenodd" d="M13.9091 32.3236C13.9648 24.8626 27.8367 17.9169 46.3637 17.9169C64.7974 17.9169 78.0262 24.7929 78.2137 32.211L90.1469 28.9733C91.8186 26.7236 92.7273 24.3057 92.7273 21.788C92.7273 9.75483 71.9696 0 46.3636 0C20.7577 0 0 9.75483 0 21.788C0 23.1477 0.481518 25.6819 1.73864 27.8182C2.85836 29.721 4.71317 31.2449 5.53272 32.3236H13.9091ZM46.3637 14.9404C61.0964 14.9404 73.8228 18.9769 79.8083 24.825C76.1342 18.2692 63.2159 12.9368 46.3637 12.9368C29.5115 12.9368 16.5932 18.2691 12.919 24.825C18.9045 18.9769 31.631 14.9404 46.3637 14.9404ZM84.5727 23.484C79.8141 15.6753 64.5091 9.96024 46.3637 9.96024C28.2181 9.96024 12.913 15.6754 8.15455 23.4842C10.3429 15.1247 25.7954 7.95668 46.3636 7.95668C66.9317 7.95668 82.3841 15.1246 84.5727 23.484ZM46.3636 4.98012C63.9497 4.98012 79.1104 9.86025 86.0479 16.896C81.4151 9.14009 66.0471 2.97656 46.3636 2.97656C26.6803 2.97656 11.3124 9.14005 6.67944 16.8959C13.617 9.86021 28.7776 4.98012 46.3636 4.98012Z" fill="url(#paint1_linear_99_169)"/>
<path d="M12.4158 34.3169C12.8951 34.3169 13.3191 34.4299 13.6878 34.6558C14.0565 34.8818 14.3054 35.1907 14.4344 35.5824L19.3842 49.9096H13.2731L10.3972 39.763C10.3235 39.4768 10.259 39.183 10.2037 38.8817C10.1484 38.5653 10.1023 38.264 10.0654 37.9778H9.31879C9.28192 38.264 9.23583 38.5653 9.18053 38.8817C9.12522 39.183 9.0607 39.4768 8.98696 39.763L6.11113 49.9096H0L4.94974 35.5824C5.07879 35.1907 5.32766 34.8818 5.69635 34.6558C6.06505 34.4299 6.48905 34.3169 6.96835 34.3169H12.4158ZM14.7663 43.1075V46.5425H4.61792V43.1075H14.7663Z" fill="white"/>
<path d="M28.7477 34.0909C30.7755 34.0909 32.3609 34.2491 33.5039 34.5654C34.6468 34.8668 35.458 35.4016 35.9373 36.1699C36.4166 36.9382 36.6562 38.0154 36.6562 39.4014C36.6562 40.7724 36.4258 41.842 35.9649 42.6104C35.5225 43.3637 34.7851 43.8985 33.7527 44.2148C32.7204 44.5162 31.3286 44.6668 29.5773 44.6668C28.6555 44.6668 27.7338 44.6291 26.812 44.5538C25.8903 44.4634 25.0239 44.358 24.2127 44.2374C23.42 44.1019 22.7379 43.9663 22.1665 43.8307C21.595 43.68 21.1986 43.5444 20.9774 43.4239L21.0604 41.2093C22.2586 41.2093 23.503 41.2093 24.7934 41.2093C26.0839 41.2093 27.3559 41.2093 28.6094 41.2093C29.1625 41.2093 29.5865 41.1641 29.8814 41.0737C30.1764 40.9682 30.3792 40.7875 30.4898 40.5314C30.6004 40.2602 30.6557 39.8835 30.6557 39.4014C30.6557 38.9043 30.6004 38.5201 30.4898 38.2489C30.3792 37.9778 30.1764 37.797 29.8814 37.7066C29.5865 37.6011 29.1625 37.5484 28.6094 37.5484C26.7291 37.5484 25.1253 37.5559 23.798 37.571C22.4706 37.5861 21.5673 37.6162 21.088 37.6614L20.6733 34.3169C21.5213 34.2415 22.3139 34.1888 23.0513 34.1587C23.8072 34.1285 24.6275 34.1135 25.5124 34.1135C26.3973 34.0984 27.4757 34.0909 28.7477 34.0909ZM26.6738 34.3169V49.9096H20.6733V34.3169H26.6738Z" fill="white"/>
<path d="M42.9441 34.2265C44.0502 34.2265 45.1839 34.234 46.3453 34.2491C47.5251 34.2491 48.6773 34.2717 49.8018 34.3169C50.9263 34.347 51.9495 34.4148 52.8712 34.5202L52.5947 37.9778H45.5987C45.2484 37.9778 44.9719 38.0531 44.7691 38.2037C44.5663 38.3544 44.4649 38.5502 44.4649 38.7913V45.4351C44.4649 45.6762 44.5663 45.872 44.7691 46.0227C44.9719 46.1734 45.2484 46.2487 45.5987 46.2487H52.5947L52.8712 49.7062C51.9495 49.7966 50.9263 49.8644 49.8018 49.9096C48.6773 49.9548 47.5251 49.9774 46.3453 49.9774C45.1839 49.9924 44.0502 50 42.9441 50C41.6352 50 40.5568 49.6761 39.7088 49.0283C38.8792 48.3654 38.4644 47.5066 38.4644 46.4521V37.7744C38.4644 36.7198 38.8792 35.8686 39.7088 35.2208C40.5568 34.5579 41.6352 34.2265 42.9441 34.2265ZM38.9622 40.3054H51.5992V43.5595H38.9622V40.3054Z" fill="white"/>
<path d="M61.2127 34.3169V49.9096H55.2121V34.3169H61.2127ZM66.3283 39.9212V43.3561H60.9914V39.9212H66.3283ZM72.0247 34.3169V49.9096H66.0241V34.3169H72.0247Z" fill="white"/>
<path d="M85.7589 34.3169C86.2383 34.3169 86.6623 34.4299 87.031 34.6558C87.3997 34.8818 87.6485 35.1907 87.7776 35.5824L92.7273 49.9096H86.6162L83.7403 39.763C83.6666 39.4768 83.6021 39.183 83.5468 38.8817C83.4915 38.5653 83.4454 38.264 83.4085 37.9778H82.6619C82.625 38.264 82.5789 38.5653 82.5236 38.8817C82.4683 39.183 82.4038 39.4768 82.3301 39.763L79.4542 49.9096H73.3431L78.2929 35.5824C78.4219 35.1907 78.6708 34.8818 79.0395 34.6558C79.4082 34.4299 79.8322 34.3169 80.3115 34.3169H85.7589ZM88.1094 43.1075V46.5425H77.961V43.1075H88.1094Z" fill="white"/>
<path d="M26.8788 27.0703C27.2136 27.0703 27.5508 27.0722 27.8902 27.0761C28.2343 27.08 28.5621 27.0917 28.8737 27.1112L28.8458 27.5094H27.0811C26.9184 27.5094 26.7975 27.5425 26.7184 27.6089C26.644 27.6714 26.6068 27.7767 26.6068 27.9251V31.1159H26V27.8314C26 27.605 26.0814 27.4215 26.2441 27.281C26.4115 27.1405 26.6231 27.0703 26.8788 27.0703Z" fill="white"/>
<path d="M31.2447 27C31.5934 27 31.8887 27.0351 32.1305 27.1054C32.3769 27.1756 32.5722 27.2927 32.7164 27.4567C32.8652 27.6167 32.9721 27.8314 33.0372 28.1007C33.107 28.37 33.1418 28.7018 33.1418 29.096C33.1418 29.4902 33.107 29.822 33.0372 30.0913C32.9721 30.3607 32.8652 30.5773 32.7164 30.7412C32.5722 30.9012 32.3769 31.0164 32.1305 31.0867C31.8887 31.1569 31.5934 31.192 31.2447 31.192C30.8959 31.192 30.5983 31.1569 30.3519 31.0867C30.1101 31.0164 29.9148 30.9012 29.766 30.7412C29.6172 30.5773 29.5079 30.3607 29.4382 30.0913C29.3731 29.822 29.3405 29.4902 29.3405 29.096C29.3405 28.7018 29.3731 28.37 29.4382 28.1007C29.5079 27.8314 29.6172 27.6167 29.766 27.4567C29.9148 27.2927 30.1101 27.1756 30.3519 27.1054C30.5983 27.0351 30.8959 27 31.2447 27ZM31.2447 27.4625C30.9285 27.4625 30.6774 27.5133 30.4914 27.6148C30.31 27.7162 30.1798 27.886 30.1008 28.1241C30.0264 28.3583 29.9892 28.6823 29.9892 29.096C29.9892 29.5059 30.0264 29.8298 30.1008 30.0679C30.1798 30.306 30.31 30.4758 30.4914 30.5773C30.6774 30.6788 30.9285 30.7295 31.2447 30.7295C31.5609 30.7295 31.8096 30.6788 31.991 30.5773C32.177 30.4758 32.3072 30.306 32.3816 30.0679C32.4606 29.8298 32.5001 29.5059 32.5001 29.096C32.5001 28.6823 32.4606 28.3583 32.3816 28.1241C32.3072 27.886 32.177 27.7162 31.991 27.6148C31.8096 27.5133 31.5609 27.4625 31.2447 27.4625Z" fill="white"/>
<path d="M35.8897 27.0059C36.0943 27.0059 36.2687 27.0098 36.4129 27.0176C36.5617 27.0254 36.6965 27.039 36.8174 27.0585C36.943 27.0742 37.0708 27.0956 37.201 27.123L37.1383 27.5152C36.9988 27.5035 36.8686 27.4938 36.7477 27.4859C36.6314 27.4781 36.5059 27.4723 36.371 27.4684C36.2362 27.4645 36.0757 27.4625 35.8897 27.4625C35.5782 27.4625 35.3317 27.5133 35.1504 27.6148C34.9691 27.7162 34.8389 27.886 34.7598 28.1241C34.6854 28.3622 34.6482 28.6862 34.6482 29.096C34.6482 29.5059 34.6854 29.8298 34.7598 30.0679C34.8389 30.306 34.9691 30.4758 35.1504 30.5773C35.3317 30.6788 35.5782 30.7295 35.8897 30.7295C36.1873 30.7295 36.4361 30.7256 36.6361 30.7178C36.8407 30.7061 37.0406 30.6885 37.2359 30.6651L37.2987 31.0515C37.0987 31.0984 36.8918 31.1315 36.6779 31.1511C36.4687 31.1745 36.2059 31.1862 35.8897 31.1862C35.4294 31.1862 35.0597 31.1198 34.7807 30.9871C34.5064 30.8505 34.3064 30.63 34.1809 30.3255C34.06 30.0211 33.9995 29.6112 33.9995 29.096C33.9995 28.5808 34.06 28.171 34.1809 27.8665C34.3064 27.5621 34.5064 27.3435 34.7807 27.2108C35.0597 27.0742 35.4294 27.0059 35.8897 27.0059Z" fill="white"/>
<path d="M39.8816 27.0761V31.1159H39.2678V27.0761H39.8816ZM41.437 27.0761V27.5328H37.7194V27.0761H41.437Z" fill="white"/>
<path d="M45.8176 27.0761V31.1159H45.2248V28.171C45.2248 28.0929 45.2271 28.0148 45.2317 27.9368C45.2364 27.8587 45.2457 27.7826 45.2596 27.7084H45.2248C45.1922 27.7826 45.1527 27.8587 45.1062 27.9368C45.0597 28.0109 45.0155 28.0812 44.9737 28.1475L42.8393 31.1159H42.2116V27.0761H42.8045V29.9918C42.8045 30.0738 42.7998 30.1557 42.7905 30.2377C42.7859 30.3158 42.7789 30.3938 42.7696 30.4719H42.7975C42.8347 30.3977 42.8765 30.3236 42.923 30.2494C42.9742 30.1753 43.023 30.103 43.0695 30.0328L45.1829 27.0761H45.8176Z" fill="white"/>
<path d="M47.6479 27.0761V31.1159H47.0341V27.0761H47.6479ZM49.9426 28.733V29.178H47.5921V28.733H49.9426ZM50.4797 27.0761V31.1159H49.8659V27.0761H50.4797Z" fill="white"/>
<path d="M55.2992 27.0761V31.1159H54.7063V28.171C54.7063 28.0929 54.7086 28.0148 54.7133 27.9368C54.7179 27.8587 54.7272 27.7826 54.7412 27.7084H54.7063C54.6738 27.7826 54.6342 27.8587 54.5877 27.9368C54.5412 28.0109 54.4971 28.0812 54.4552 28.1475L52.3209 31.1159H51.6931V27.0761H52.286V29.9918C52.286 30.0738 52.2814 30.1557 52.2721 30.2377C52.2674 30.3158 52.2604 30.3938 52.2511 30.4719H52.279C52.3162 30.3977 52.3581 30.3236 52.4046 30.2494C52.4557 30.1753 52.5046 30.103 52.5511 30.0328L54.6645 27.0761H55.2992Z" fill="white"/>
<path d="M56.5156 31.1159V27.0761H57.1294V31.1159H56.5156ZM57.0736 31.1159V30.6944H60.5053V31.1159H57.0736ZM59.2986 31.1159V27.0761H59.9124V31.1159H59.2986ZM60.0798 32L60.0171 31.0749H60.5053V32H60.0798Z" fill="white"/>
<path d="M63.2214 27.0761C63.2772 27.0761 63.326 27.0898 63.3679 27.1171C63.4097 27.1405 63.4376 27.1737 63.4516 27.2166L65 31.1159H64.3653L63.1168 27.8021C63.0982 27.7475 63.0772 27.6928 63.054 27.6382C63.0354 27.5796 63.0168 27.525 62.9982 27.4742H62.8029C62.7843 27.525 62.7657 27.5796 62.7471 27.6382C62.7285 27.6928 62.7076 27.7475 62.6843 27.8021L61.4358 31.1159H60.8011L62.3495 27.2166C62.3635 27.1737 62.3914 27.1405 62.4332 27.1171C62.4751 27.0898 62.5239 27.0761 62.5797 27.0761H63.2214ZM64.1142 29.4063V29.8513H61.673V29.4063H64.1142Z" fill="white"/>
<defs>
<linearGradient id="paint0_linear_99_169" x1="6.375" y1="9.85228" x2="83.4546" y2="32.4546" gradientUnits="userSpaceOnUse">
<stop stop-color="#A63D4D"/>
<stop offset="1" stop-color="#A63D4D" stop-opacity="0"/>
</linearGradient>
<linearGradient id="paint1_linear_99_169" x1="6.375" y1="9.85228" x2="83.4546" y2="32.4546" gradientUnits="userSpaceOnUse">
<stop stop-color="#A63D4D"/>
<stop offset="1" stop-color="#A63D4D" stop-opacity="0"/>
</linearGradient>
</defs>
</svg>
