<svg width="170" height="92" viewBox="0 0 170 92" fill="none" xmlns="http://www.w3.org/2000/svg">
<path d="M82.4566 74.4135L84.618 75L86.7425 74.4235C86.1638 74.4294 85.5829 74.4323 85 74.4323C84.1477 74.4323 83.2999 74.426 82.4566 74.4135Z" fill="url(#paint0_linear_150_3394)"/>
<path fill-rule="evenodd" clip-rule="evenodd" d="M25.5 59.2599C25.6021 45.5815 51.0339 32.8477 85 32.8477C118.795 32.8477 143.048 45.4537 143.392 59.0535L165.269 53.1178C168.334 48.9933 170 44.5604 170 39.9447C170 17.8838 131.944 0 85 0C38.0558 0 0 17.8838 0 39.9447C0 42.4374 0.882783 47.0834 3.1875 51C5.24032 54.4885 8.6408 57.2822 10.1433 59.2599H25.5ZM85 27.3906C112.01 27.3906 135.342 34.791 146.315 45.5125C139.579 33.4935 115.896 23.7175 85 23.7175C54.1044 23.7175 30.4209 33.4934 23.6849 45.5124C34.6583 34.791 57.9902 27.3906 85 27.3906ZM155.05 43.054C146.326 28.738 118.267 18.2604 85 18.2604C51.7332 18.2604 23.6738 28.7382 14.95 43.0544C18.962 27.7286 47.2916 14.5872 85 14.5872C122.708 14.5872 151.037 27.7284 155.05 43.054ZM85 9.13021C117.241 9.13021 145.036 18.0771 157.754 30.976C149.261 16.7568 121.086 5.45703 85 5.45703C48.9139 5.45703 20.7393 16.7567 12.2456 30.9758C24.9645 18.0771 52.7589 9.13021 85 9.13021Z" fill="url(#paint1_linear_150_3394)"/>
<path d="M22.7624 62.9142C23.6411 62.9142 24.4184 63.1213 25.0944 63.5356C25.7703 63.9499 26.2266 64.5161 26.4631 65.2343L35.5377 91.5008H24.3339L19.0616 72.8988C18.9264 72.374 18.8081 71.8354 18.7067 71.283C18.6053 70.703 18.5208 70.1506 18.4532 69.6258H17.0844C17.0168 70.1506 16.9324 70.703 16.831 71.283C16.7296 71.8354 16.6113 72.374 16.4761 72.8988L11.2037 91.5008H0L9.07452 65.2343C9.3111 64.5161 9.76737 63.9499 10.4433 63.5356C11.1193 63.1213 11.8966 62.9142 12.7753 62.9142H22.7624ZM27.0715 79.0304V85.3278H8.46618V79.0304H27.0715Z" fill="white"/>
<path d="M52.7041 62.4999C56.4218 62.4999 59.3283 62.7899 61.4237 63.3699C63.5192 63.9223 65.0062 64.9028 65.885 66.3114C66.7637 67.72 67.203 69.6949 67.203 72.2359C67.203 74.7493 66.7806 76.7103 65.9357 78.119C65.1245 79.5 63.7726 80.4805 61.88 81.0605C59.9874 81.6129 57.4357 81.8891 54.225 81.8891C52.5351 81.8891 50.8452 81.82 49.1554 81.6819C47.4655 81.5162 45.8771 81.3229 44.39 81.1019C42.9367 80.8533 41.6862 80.6047 40.6385 80.3562C39.5908 80.08 38.8642 79.8314 38.4586 79.6104L38.6107 75.5503C40.8075 75.5503 43.0888 75.5503 45.4546 75.5503C47.8204 75.5503 50.1524 75.5503 52.4506 75.5503C53.4645 75.5503 54.2419 75.4674 54.7826 75.3017C55.3234 75.1084 55.6951 74.7769 55.8979 74.3074C56.1007 73.8102 56.2021 73.1197 56.2021 72.2359C56.2021 71.3244 56.1007 70.6201 55.8979 70.123C55.6951 69.6258 55.3234 69.2944 54.7826 69.1287C54.2419 68.9353 53.4645 68.8387 52.4506 68.8387C49.0033 68.8387 46.063 68.8525 43.6296 68.8801C41.1962 68.9077 39.5401 68.9629 38.6614 69.0458L37.901 62.9142C39.4556 62.7761 40.9089 62.6794 42.2608 62.6242C43.6465 62.5689 45.1504 62.5413 46.7727 62.5413C48.395 62.5137 50.3721 62.4999 52.7041 62.4999ZM48.9019 62.9142V91.5008H37.901V62.9142H48.9019Z" fill="white"/>
<path d="M78.7308 62.7485C80.7586 62.7485 82.8371 62.7623 84.9663 62.7899C87.1294 62.7899 89.2417 62.8313 91.3033 62.9142C93.3649 62.9694 95.2407 63.0937 96.9305 63.287L96.4236 69.6258H83.5976C82.9554 69.6258 82.4485 69.7639 82.0767 70.0401C81.7049 70.3163 81.519 70.6754 81.519 71.1173V83.2977C81.519 83.7396 81.7049 84.0987 82.0767 84.3749C82.4485 84.6511 82.9554 84.7892 83.5976 84.7892H96.4236L96.9305 91.1279C95.2407 91.2937 93.3649 91.418 91.3033 91.5008C89.2417 91.5837 87.1294 91.6251 84.9663 91.6251C82.8371 91.6527 80.7586 91.6665 78.7308 91.6665C76.3312 91.6665 74.354 91.0727 72.7994 89.885C71.2785 88.6698 70.5181 87.0954 70.5181 85.162V69.253C70.5181 67.3196 71.2785 65.759 72.7994 64.5714C74.354 63.3561 76.3312 62.7485 78.7308 62.7485ZM71.4306 73.8931H94.5985V79.859H71.4306V73.8931Z" fill="white"/>
<path d="M112.223 62.9142V91.5008H101.222V62.9142H112.223ZM121.602 73.1888V79.4861H111.818V73.1888H121.602ZM132.045 62.9142V91.5008H121.044V62.9142H132.045Z" fill="white"/>
<path d="M157.225 62.9142C158.103 62.9142 158.881 63.1213 159.557 63.5356C160.233 63.9499 160.689 64.5161 160.925 65.2343L170 91.5008H158.796L153.524 72.8988C153.389 72.374 153.27 71.8354 153.169 71.283C153.068 70.703 152.983 70.1506 152.916 69.6258H151.547C151.479 70.1506 151.395 70.703 151.293 71.283C151.192 71.8354 151.074 72.374 150.938 72.8988L145.666 91.5008H134.462L143.537 65.2343C143.773 64.5161 144.23 63.9499 144.906 63.5356C145.582 63.1213 146.359 62.9142 147.238 62.9142H157.225ZM161.534 79.0304V85.3278H142.929V79.0304H161.534Z" fill="white"/>
<path d="M49.2777 49.6292C49.8915 49.6292 50.5096 49.6327 51.1319 49.6399C51.7627 49.6471 52.3637 49.6685 52.9349 49.7043L52.8838 50.4342H49.6485C49.3502 50.4342 49.1285 50.495 48.9836 50.6167C48.8472 50.7312 48.779 50.9244 48.779 51.1963V57.0462H47.6665V51.0246C47.6665 50.6095 47.8157 50.2732 48.1141 50.0156C48.421 49.758 48.8088 49.6292 49.2777 49.6292Z" fill="white"/>
<path d="M57.2817 49.5004C57.9211 49.5004 58.4624 49.5648 58.9057 49.6936C59.3575 49.8224 59.7156 50.0371 59.9798 50.3376C60.2526 50.631 60.4487 51.0246 60.5681 51.5183C60.6959 52.0121 60.7599 52.6203 60.7599 53.3431C60.7599 54.0658 60.6959 54.6741 60.5681 55.1678C60.4487 55.6616 60.2526 56.0587 59.9798 56.3593C59.7156 56.6527 59.3575 56.8638 58.9057 56.9926C58.4624 57.1214 57.9211 57.1858 57.2817 57.1858C56.6423 57.1858 56.0967 57.1214 55.6449 56.9926C55.2016 56.8638 54.8436 56.6527 54.5708 56.3593C54.298 56.0587 54.0977 55.6616 53.9698 55.1678C53.8504 54.6741 53.7908 54.0658 53.7908 53.3431C53.7908 52.6203 53.8504 52.0121 53.9698 51.5183C54.0977 51.0246 54.298 50.631 54.5708 50.3376C54.8436 50.0371 55.2016 49.8224 55.6449 49.6936C56.0967 49.5648 56.6423 49.5004 57.2817 49.5004ZM57.2817 50.3483C56.702 50.3483 56.2417 50.4414 55.9007 50.6274C55.5682 50.8135 55.3295 51.1247 55.1846 51.5613C55.0482 51.9906 54.98 52.5845 54.98 53.3431C54.98 54.0944 55.0482 54.6884 55.1846 55.1249C55.3295 55.5614 55.5682 55.8727 55.9007 56.0587C56.2417 56.2448 56.702 56.3378 57.2817 56.3378C57.8614 56.3378 58.3175 56.2448 58.65 56.0587C58.991 55.8727 59.2296 55.5614 59.366 55.1249C59.511 54.6884 59.5834 54.0944 59.5834 53.3431C59.5834 52.5845 59.511 51.9906 59.366 51.5613C59.2296 51.1247 58.991 50.8135 58.65 50.6274C58.3175 50.4414 57.8614 50.3483 57.2817 50.3483Z" fill="white"/>
<path d="M65.7977 49.5111C66.1728 49.5111 66.4925 49.5183 66.7567 49.5326C67.0295 49.5469 67.2768 49.5719 67.4984 49.6077C67.7286 49.6363 67.963 49.6757 68.2017 49.7258L68.0866 50.4449C67.8309 50.4235 67.5922 50.4056 67.3705 50.3913C67.1574 50.377 66.9272 50.3662 66.68 50.3591C66.4328 50.3519 66.1387 50.3483 65.7977 50.3483C65.2265 50.3483 64.7747 50.4414 64.4422 50.6274C64.1098 50.8135 63.8711 51.1247 63.7261 51.5613C63.5897 51.9978 63.5215 52.5917 63.5215 53.3431C63.5215 54.0944 63.5897 54.6884 63.7261 55.1249C63.8711 55.5614 64.1098 55.8727 64.4422 56.0587C64.7747 56.2448 65.2265 56.3378 65.7977 56.3378C66.3433 56.3378 66.7994 56.3306 67.1659 56.3163C67.541 56.2949 67.9076 56.2627 68.2657 56.2197L68.3807 56.9282C68.0142 57.014 67.6348 57.0748 67.2427 57.1106C66.859 57.1536 66.3774 57.175 65.7977 57.175C64.9537 57.175 64.276 57.0534 63.7645 56.8101C63.2615 56.5596 62.895 56.1553 62.6648 55.5972C62.4431 55.039 62.3323 54.2876 62.3323 53.3431C62.3323 52.3985 62.4431 51.6471 62.6648 51.089C62.895 50.5308 63.2615 50.1301 63.7645 49.8868C64.276 49.6363 64.9537 49.5111 65.7977 49.5111Z" fill="white"/>
<path d="M73.1161 49.6399V57.0462H71.9908V49.6399H73.1161ZM75.9676 49.6399V50.4771H69.152V49.6399H75.9676Z" fill="white"/>
<path d="M83.9988 49.6399V57.0462H82.9119V51.6471C82.9119 51.504 82.9162 51.3609 82.9247 51.2178C82.9332 51.0747 82.9502 50.9351 82.9758 50.7992H82.9119C82.8522 50.9351 82.7798 51.0747 82.6945 51.2178C82.6093 51.3537 82.5283 51.4825 82.4515 51.6042L78.5386 57.0462H77.3877V49.6399H78.4747V54.9853C78.4747 55.1356 78.4661 55.2859 78.4491 55.4362C78.4406 55.5793 78.4278 55.7224 78.4107 55.8655H78.4619C78.5301 55.7295 78.6068 55.5936 78.6921 55.4576C78.7858 55.3217 78.8753 55.1893 78.9606 55.0605L82.8352 49.6399H83.9988Z" fill="white"/>
<path d="M87.3543 49.6399V57.0462H86.229V49.6399H87.3543ZM91.5613 52.6776V53.4933H87.252V52.6776H91.5613ZM92.546 49.6399V57.0462H91.4207V49.6399H92.546Z" fill="white"/>
<path d="M101.382 49.6399V57.0462H100.295V51.6471C100.295 51.504 100.299 51.3609 100.308 51.2178C100.316 51.0747 100.333 50.9351 100.359 50.7992H100.295C100.235 50.9351 100.163 51.0747 100.077 51.2178C99.9921 51.3537 99.9111 51.4825 99.8344 51.6042L95.9214 57.0462H94.7706V49.6399H95.8575V54.9853C95.8575 55.1356 95.849 55.2859 95.8319 55.4362C95.8234 55.5793 95.8106 55.7224 95.7936 55.8655H95.8447C95.9129 55.7295 95.9896 55.5936 96.0749 55.4576C96.1687 55.3217 96.2582 55.1893 96.3434 55.0605L100.218 49.6399H101.382Z" fill="white"/>
<path d="M103.612 57.0462V49.6399H104.737V57.0462H103.612ZM104.635 57.0462V56.2734H110.926V57.0462H104.635ZM108.714 57.0462V49.6399H109.839V57.0462H108.714ZM110.146 58.667L110.031 56.9711H110.926V58.667H110.146Z" fill="white"/>
<path d="M115.906 49.6399C116.008 49.6399 116.098 49.665 116.174 49.715C116.251 49.758 116.302 49.8188 116.328 49.8975L119.166 57.0462H118.003L115.714 50.9709C115.68 50.8707 115.641 50.7705 115.599 50.6703C115.565 50.563 115.531 50.4628 115.496 50.3698H115.138C115.104 50.4628 115.07 50.563 115.036 50.6703C115.002 50.7705 114.964 50.8707 114.921 50.9709L112.632 57.0462H111.468L114.307 49.8975C114.333 49.8188 114.384 49.758 114.461 49.715C114.537 49.665 114.627 49.6399 114.729 49.6399H115.906ZM117.542 53.912V54.7277H113.067V53.912H117.542Z" fill="white"/>
<defs>
<linearGradient id="paint0_linear_150_3394" x1="11.6875" y1="18.0625" x2="153" y2="59.5" gradientUnits="userSpaceOnUse">
<stop stop-color="#A63D4D"/>
<stop offset="1" stop-color="#A63D4D" stop-opacity="0"/>
</linearGradient>
<linearGradient id="paint1_linear_150_3394" x1="11.6875" y1="18.0625" x2="153" y2="59.5" gradientUnits="userSpaceOnUse">
<stop stop-color="#A63D4D"/>
<stop offset="1" stop-color="#A63D4D" stop-opacity="0"/>
</linearGradient>
</defs>
</svg>
